<?xml version="1.0" encoding="UTF-8"?>
<!DOCTYPE svg PUBLIC "-//W3C//DTD SVG 1.1//EN" "http://www.w3.org/Graphics/SVG/1.1/DTD/svg11.dtd">
<svg xmlns="http://www.w3.org/2000/svg" version="1.1" width="442px" height="472px" style="shape-rendering:geometricPrecision; text-rendering:geometricPrecision; image-rendering:optimizeQuality; fill-rule:evenodd; clip-rule:evenodd" xmlns:xlink="http://www.w3.org/1999/xlink">
<g><path style="opacity:1" fill="#fdfefe" d="M -0.5,-0.5 C 146.833,-0.5 294.167,-0.5 441.5,-0.5C 441.5,156.833 441.5,314.167 441.5,471.5C 294.167,471.5 146.833,471.5 -0.5,471.5C -0.5,314.167 -0.5,156.833 -0.5,-0.5 Z"/></g>
<g><path style="opacity:1" fill="#defde2" d="M 259.5,33.5 C 258.167,33.5 256.833,33.5 255.5,33.5C 248.371,32.1851 241.037,31.5185 233.5,31.5C 177.833,31.5 122.167,31.5 66.5,31.5C 66.5,72.5 66.5,113.5 66.5,154.5C 66.5,248.833 66.5,343.167 66.5,437.5C 65.5004,302.001 65.1671,166.334 65.5,30.5C 129.501,30.3333 193.501,30.5 257.5,31C 258.381,31.7083 259.047,32.5416 259.5,33.5 Z"/></g>
<g><path style="opacity:1" fill="#5aba66" d="M 233.5,32.5 C 233.5,32.1667 233.5,31.8333 233.5,31.5C 241.037,31.5185 248.371,32.1851 255.5,33.5C 248.132,33.6831 240.799,33.3498 233.5,32.5 Z"/></g>
<g><path style="opacity:1" fill="#35b338" d="M 86.5,32.5 C 135.5,32.5 184.5,32.5 233.5,32.5C 240.799,33.3498 248.132,33.6831 255.5,33.5C 256.833,33.5 258.167,33.5 259.5,33.5C 259.5,34.5 259.5,35.5 259.5,36.5C 267.279,36.1958 274.946,36.8625 282.5,38.5C 287.17,39.0161 291.503,40.3494 295.5,42.5C 302.729,46.5751 310.396,49.9085 318.5,52.5C 321.738,53.7375 324.738,55.4042 327.5,57.5C 327.508,62.8357 330.175,65.5023 335.5,65.5C 335.33,66.8221 335.663,67.9887 336.5,69C 338.618,70.5492 340.951,71.7158 343.5,72.5C 344.484,74.5979 344.151,76.5979 342.5,78.5C 343.325,79.3857 344.325,79.719 345.5,79.5C 345.351,78.448 345.517,77.448 346,76.5C 347.218,78.0192 348.718,79.1859 350.5,80C 349.833,80.3333 349.167,80.6667 348.5,81C 352.824,87.1064 356.49,93.6064 359.5,100.5C 358.167,101.833 356.833,101.833 355.5,100.5C 354.119,98.3651 353.119,96.0318 352.5,93.5C 351.808,94.0253 351.308,94.6919 351,95.5C 349.361,92.1966 347.028,89.5299 344,87.5C 342.089,87.7451 340.089,87.7451 338,87.5C 337.25,88.1258 336.416,88.6258 335.5,89C 336.872,89.4017 338.205,89.9017 339.5,90.5C 343.333,96.1667 347.167,101.833 351,107.5C 353.772,115.047 357.105,122.38 361,129.5C 360.41,138.663 362.243,147.163 366.5,155C 365.833,155.333 365.167,155.667 364.5,156C 365.849,156.772 366.682,157.939 367,159.5C 367.833,157 369,156.833 370.5,159C 368.589,162.554 366.922,166.221 365.5,170C 366.466,174.681 367.799,179.181 369.5,183.5C 368.502,186.028 367.669,186.028 367,183.5C 365.458,188.884 363.791,194.217 362,199.5C 361.667,204.833 361.333,210.167 361,215.5C 360.74,217.618 359.74,219.284 358,220.5C 358.631,223.343 358.131,225.843 356.5,228C 357.369,229.465 356.869,230.631 355,231.5C 353.85,230.576 352.85,230.576 352,231.5C 350.489,234.796 349.323,238.129 348.5,241.5C 347.325,241.281 346.325,241.614 345.5,242.5C 341.503,248.49 337.503,254.49 333.5,260.5C 329.504,264.164 325.837,268.164 322.5,272.5C 317.255,276.252 311.422,278.586 305,279.5C 303.941,279.37 303.108,278.87 302.5,278C 303.711,277.107 303.711,276.274 302.5,275.5C 299.45,277.549 297.117,280.216 295.5,283.5C 297.144,286.311 299.31,288.644 302,290.5C 304.722,287.363 307.888,286.863 311.5,289C 309.571,291.748 306.905,294.248 303.5,296.5C 302.722,297.156 302.056,297.989 301.5,299C 303.34,302.325 305.34,305.492 307.5,308.5C 305.5,308.167 303.5,307.833 301.5,307.5C 300.533,301.234 297.699,295.901 293,291.5C 290.874,285.036 286.874,280.036 281,276.5C 280.667,275.167 280.333,273.833 280,272.5C 277.347,270.845 275.014,268.845 273,266.5C 272.556,263.389 271.223,260.723 269,258.5C 267.989,257.663 266.822,257.33 265.5,257.5C 265.159,254.484 263.993,251.818 262,249.5C 259.333,245.5 256,242.167 252,239.5C 249.641,234.467 246.474,229.967 242.5,226C 241.552,225.517 240.552,225.351 239.5,225.5C 239.5,224.5 239.5,223.5 239.5,222.5C 237.302,222.88 235.635,222.213 234.5,220.5C 231.713,219.523 228.713,219.19 225.5,219.5C 227.969,218.683 230.635,218.183 233.5,218C 231.915,215.931 230.581,213.764 229.5,211.5C 232.165,213.64 234.498,216.14 236.5,219C 240.182,219.222 243.848,218.889 247.5,218C 257.062,214.265 265.062,208.432 271.5,200.5C 273.417,199.884 274.584,198.55 275,196.5C 275.333,196.833 275.667,197.167 276,197.5C 277.745,193.004 278.579,188.338 278.5,183.5C 278.5,183.167 278.5,182.833 278.5,182.5C 279.117,182.389 279.617,182.056 280,181.5C 280.968,173.681 280.301,166.014 278,158.5C 277.617,157.944 277.117,157.611 276.5,157.5C 275.167,155.167 273.833,152.833 272.5,150.5C 269.552,144.552 265.219,139.885 259.5,136.5C 255.661,132.69 250.994,130.357 245.5,129.5C 245.586,128.504 245.252,127.671 244.5,127C 219.502,126.5 194.502,126.333 169.5,126.5C 169.19,129.713 169.523,132.713 170.5,135.5C 171.167,136.833 171.833,138.167 172.5,139.5C 171.502,165.995 171.169,192.661 171.5,219.5C 170.833,196.167 170.167,172.833 169.5,149.5C 170.725,140.242 167.725,132.575 160.5,126.5C 157.283,118.069 152.117,111.069 145,105.5C 139.395,96.8957 132.728,89.2291 125,82.5C 124.667,81.1667 124.333,79.8333 124,78.5C 115.907,67.9837 107.573,57.6504 99,47.5C 98.6667,46.1667 98.3333,44.8333 98,43.5C 93.7558,39.9982 89.9224,36.3315 86.5,32.5 Z"/></g>
<g><path style="opacity:1" fill="#47ad4e" d="M 259.5,33.5 C 267.582,33.7917 275.248,35.4584 282.5,38.5C 274.946,36.8625 267.279,36.1958 259.5,36.5C 259.5,35.5 259.5,34.5 259.5,33.5 Z"/></g>
<g><path style="opacity:1" fill="#37b72d" d="M 68.5,32.5 C 74.5,32.5 80.5,32.5 86.5,32.5C 89.9224,36.3315 93.7558,39.9982 98,43.5C 98.3333,44.8333 98.6667,46.1667 99,47.5C 107.573,57.6504 115.907,67.9837 124,78.5C 124.333,79.8333 124.667,81.1667 125,82.5C 132.728,89.2291 139.395,96.8957 145,105.5C 152.117,111.069 157.283,118.069 160.5,126.5C 167.725,132.575 170.725,140.242 169.5,149.5C 169.5,172.167 169.5,194.833 169.5,217.5C 167.866,212.563 166.866,207.229 166.5,201.5C 165.833,191.5 165.167,181.5 164.5,171.5C 163.833,174.167 163.167,176.833 162.5,179.5C 161.507,174.88 161.173,170.214 161.5,165.5C 162.833,165.5 164.167,165.5 165.5,165.5C 165.187,162.753 165.52,160.086 166.5,157.5C 167.086,157.709 167.586,158.043 168,158.5C 169.483,151.396 168.316,150.396 164.5,155.5C 163.777,153.836 164.11,152.169 165.5,150.5C 164.012,148.423 162.012,147.423 159.5,147.5C 158.804,143.074 157.137,139.074 154.5,135.5C 153.679,132.553 153.179,129.553 153,126.5C 151.605,127.815 150.605,127.481 150,125.5C 149.503,122.854 149.336,120.187 149.5,117.5C 145.5,117.5 143.5,115.5 143.5,111.5C 142.167,111.5 140.833,111.5 139.5,111.5C 137.401,106.033 134.901,100.7 132,95.5C 130.667,95.5 129.333,95.5 128,95.5C 127.236,91.9005 125.07,89.9005 121.5,89.5C 119.861,84.8753 118.194,80.2087 116.5,75.5C 115.833,76.1667 115.167,76.8333 114.5,77.5C 113.575,76.3595 112.741,76.3595 112,77.5C 106.411,69.3227 100.578,61.3227 94.5,53.5C 93.276,51.1725 93.276,48.8392 94.5,46.5C 89.33,43.9898 84.33,42.3231 79.5,41.5C 79.5,42.8333 79.5,44.1667 79.5,45.5C 82.2469,45.1866 84.9135,45.52 87.5,46.5C 85.604,47.4656 83.604,47.7989 81.5,47.5C 80.1963,80.821 78.863,114.154 77.5,147.5C 77.7163,149.384 78.383,151.051 79.5,152.5C 76.8333,153.833 76.8333,155.167 79.5,156.5C 79.2907,157.086 78.9574,157.586 78.5,158C 80.7801,158.703 82.7801,159.869 84.5,161.5C 85.1667,160.833 85.8333,160.167 86.5,159.5C 87.5363,164.545 90.203,168.545 94.5,171.5C 95.4287,172.689 95.762,174.022 95.5,175.5C 96.8333,175.5 98.1667,175.5 99.5,175.5C 99.9172,178.343 100.917,181.01 102.5,183.5C 105.27,185.601 107.27,188.268 108.5,191.5C 111.833,194.167 115.167,196.833 118.5,199.5C 119.429,200.689 119.762,202.022 119.5,203.5C 120.833,203.5 122.167,203.5 123.5,203.5C 123.472,207.155 125.139,209.822 128.5,211.5C 131.236,216.873 133.902,222.206 136.5,227.5C 138.675,222.637 139.675,223.303 139.5,229.5C 142.535,229.521 144.868,230.854 146.5,233.5C 147.446,238.058 149.446,242.058 152.5,245.5C 153.167,244.833 153.833,244.167 154.5,243.5C 155.48,246.086 155.813,248.753 155.5,251.5C 156.833,251.5 158.167,251.5 159.5,251.5C 159.351,252.552 159.517,253.552 160,254.5C 164.51,259.175 169.343,263.509 174.5,267.5C 175.236,270.32 176.902,272.32 179.5,273.5C 180.672,273.081 181.672,272.415 182.5,271.5C 183.167,274.833 183.833,278.167 184.5,281.5C 186.577,282.988 187.577,284.988 187.5,287.5C 192.718,288.222 194.385,291.055 192.5,296C 193.126,296.75 193.626,297.584 194,298.5C 194.333,298.167 194.667,297.833 195,297.5C 199.928,301.716 204.761,306.05 209.5,310.5C 209.291,311.086 208.957,311.586 208.5,312C 210.022,315.635 212.355,318.468 215.5,320.5C 218.075,323.319 220.408,326.319 222.5,329.5C 223.167,328.833 223.833,328.167 224.5,327.5C 226.336,330.845 227.669,334.345 228.5,338C 228.167,338.333 227.833,338.667 227.5,339C 230.364,341.054 232.031,343.888 232.5,347.5C 233.167,346.833 233.833,346.167 234.5,345.5C 235.842,347.005 237.508,347.672 239.5,347.5C 239.5,349.5 239.5,351.5 239.5,353.5C 242.144,353.16 244.477,353.827 246.5,355.5C 247.806,362.113 251.139,367.447 256.5,371.5C 258.084,375.675 260.418,379.341 263.5,382.5C 264.689,383.429 266.022,383.762 267.5,383.5C 268.32,387.158 266.987,389.491 263.5,390.5C 264.405,392.638 265.405,394.805 266.5,397C 264.826,398.506 263.826,400.339 263.5,402.5C 262.061,400.64 260.395,398.973 258.5,397.5C 254.894,391.562 250.561,386.229 245.5,381.5C 243.878,378.545 241.878,375.878 239.5,373.5C 237.471,371.142 235.471,368.808 233.5,366.5C 232.92,364.251 231.587,362.585 229.5,361.5C 227.878,358.545 225.878,355.878 223.5,353.5C 219.635,347.76 215.302,342.427 210.5,337.5C 207.229,331.898 203.229,326.898 198.5,322.5C 196.518,319.19 194.185,316.19 191.5,313.5C 191.267,311.938 190.6,310.605 189.5,309.5C 185.915,301.401 180.581,294.568 173.5,289C 174.167,288.667 174.833,288.333 175.5,288C 174.289,286.887 174.289,285.72 175.5,284.5C 174.271,283.719 172.938,283.219 171.5,283C 171.833,282.667 172.167,282.333 172.5,282C 164.119,273.618 157.286,264.118 152,253.5C 148.738,254.841 148.238,254.508 150.5,252.5C 147.993,250.162 145.327,247.996 142.5,246C 143.28,244.927 143.113,243.76 142,242.5C 137.939,238.776 134.272,234.776 131,230.5C 130.404,227.46 129.237,224.794 127.5,222.5C 125.876,222.64 124.71,221.973 124,220.5C 123.586,220.957 123.086,221.291 122.5,221.5C 120.062,217.558 117.062,214.058 113.5,211C 114.167,210.333 114.833,209.667 115.5,209C 113.781,207.943 111.947,207.11 110,206.5C 108.148,204.77 108.314,203.604 110.5,203C 109.107,200.822 107.44,199.822 105.5,200C 105.833,199.667 106.167,199.333 106.5,199C 105.004,194.153 102.004,190.653 97.5,188.5C 96.914,188.709 96.414,189.043 96,189.5C 93.8918,187.618 92.5585,185.285 92,182.5C 89.1119,179.718 85.9452,177.384 82.5,175.5C 80.233,172.729 77.733,170.062 75,167.5C 74.467,164.495 73.3004,161.828 71.5,159.5C 70.928,158.027 70.0946,156.693 69,155.5C 68.5,114.501 68.3333,73.5014 68.5,32.5 Z"/></g>
<g><path style="opacity:1" fill="#37b72a" d="M 169.5,217.5 C 169.33,218.822 169.663,219.989 170.5,221C 191.853,221.776 213.187,221.61 234.5,220.5C 235.635,222.213 237.302,222.88 239.5,222.5C 239.5,223.5 239.5,224.5 239.5,225.5C 240.552,225.351 241.552,225.517 242.5,226C 246.474,229.967 249.641,234.467 252,239.5C 256,242.167 259.333,245.5 262,249.5C 263.993,251.818 265.159,254.484 265.5,257.5C 266.822,257.33 267.989,257.663 269,258.5C 271.223,260.723 272.556,263.389 273,266.5C 275.014,268.845 277.347,270.845 280,272.5C 280.333,273.833 280.667,275.167 281,276.5C 286.874,280.036 290.874,285.036 293,291.5C 297.699,295.901 300.533,301.234 301.5,307.5C 303.5,307.833 305.5,308.167 307.5,308.5C 307.833,308.5 308.167,308.5 308.5,308.5C 312.553,313.219 316.22,318.219 319.5,323.5C 320.08,325.749 321.413,327.415 323.5,328.5C 323.022,331.278 324.022,333.278 326.5,334.5C 327.776,337.034 328.11,339.534 327.5,342C 329.35,344.033 330.016,344.033 329.5,342C 330.167,341.333 330.833,341.333 331.5,342C 334.952,345.103 338.285,348.269 341.5,351.5C 342.08,353.749 343.413,355.415 345.5,356.5C 346.5,356.833 347.167,357.5 347.5,358.5C 347.776,362.344 349.776,365.01 353.5,366.5C 354.694,370.363 357.027,373.363 360.5,375.5C 362.262,376.262 363.262,377.596 363.5,379.5C 365.208,383.572 367.874,386.905 371.5,389.5C 371.859,391.371 372.859,392.871 374.5,394C 373.5,394.333 372.5,394.667 371.5,395C 374.118,397.739 376.618,400.573 379,403.5C 379.741,402.359 380.575,402.359 381.5,403.5C 383.188,405.854 385.188,407.854 387.5,409.5C 389.208,413.572 391.874,416.905 395.5,419.5C 395.794,425.295 398.628,429.295 404,431.5C 404.494,433.134 404.66,434.801 404.5,436.5C 368.498,436.667 332.498,436.5 296.5,436C 294.612,434.301 292.612,433.801 290.5,434.5C 289.358,433.174 288.024,432.174 286.5,431.5C 285.5,430.833 284.5,430.167 283.5,429.5C 281.878,426.545 279.878,423.878 277.5,421.5C 276.92,419.251 275.587,417.585 273.5,416.5C 271.518,413.19 269.185,410.19 266.5,407.5C 265.075,406.078 264.075,404.411 263.5,402.5C 263.826,400.339 264.826,398.506 266.5,397C 265.405,394.805 264.405,392.638 263.5,390.5C 266.987,389.491 268.32,387.158 267.5,383.5C 266.022,383.762 264.689,383.429 263.5,382.5C 260.418,379.341 258.084,375.675 256.5,371.5C 251.139,367.447 247.806,362.113 246.5,355.5C 244.477,353.827 242.144,353.16 239.5,353.5C 239.5,351.5 239.5,349.5 239.5,347.5C 237.508,347.672 235.842,347.005 234.5,345.5C 233.833,346.167 233.167,346.833 232.5,347.5C 232.031,343.888 230.364,341.054 227.5,339C 227.833,338.667 228.167,338.333 228.5,338C 227.669,334.345 226.336,330.845 224.5,327.5C 223.833,328.167 223.167,328.833 222.5,329.5C 220.408,326.319 218.075,323.319 215.5,320.5C 212.355,318.468 210.022,315.635 208.5,312C 208.957,311.586 209.291,311.086 209.5,310.5C 204.761,306.05 199.928,301.716 195,297.5C 194.667,297.833 194.333,298.167 194,298.5C 193.626,297.584 193.126,296.75 192.5,296C 194.385,291.055 192.718,288.222 187.5,287.5C 187.577,284.988 186.577,282.988 184.5,281.5C 183.833,278.167 183.167,274.833 182.5,271.5C 181.672,272.415 180.672,273.081 179.5,273.5C 176.902,272.32 175.236,270.32 174.5,267.5C 169.343,263.509 164.51,259.175 160,254.5C 159.517,253.552 159.351,252.552 159.5,251.5C 158.167,251.5 156.833,251.5 155.5,251.5C 155.813,248.753 155.48,246.086 154.5,243.5C 153.833,244.167 153.167,244.833 152.5,245.5C 149.446,242.058 147.446,238.058 146.5,233.5C 144.868,230.854 142.535,229.521 139.5,229.5C 139.675,223.303 138.675,222.637 136.5,227.5C 133.902,222.206 131.236,216.873 128.5,211.5C 125.139,209.822 123.472,207.155 123.5,203.5C 122.167,203.5 120.833,203.5 119.5,203.5C 119.762,202.022 119.429,200.689 118.5,199.5C 115.167,196.833 111.833,194.167 108.5,191.5C 107.27,188.268 105.27,185.601 102.5,183.5C 100.917,181.01 99.9172,178.343 99.5,175.5C 98.1667,175.5 96.8333,175.5 95.5,175.5C 95.762,174.022 95.4287,172.689 94.5,171.5C 90.203,168.545 87.5363,164.545 86.5,159.5C 85.8333,160.167 85.1667,160.833 84.5,161.5C 82.7801,159.869 80.7801,158.703 78.5,158C 78.9574,157.586 79.2907,157.086 79.5,156.5C 76.8333,155.167 76.8333,153.833 79.5,152.5C 78.383,151.051 77.7163,149.384 77.5,147.5C 78.863,114.154 80.1963,80.821 81.5,47.5C 83.604,47.7989 85.604,47.4656 87.5,46.5C 84.9135,45.52 82.2469,45.1866 79.5,45.5C 79.5,44.1667 79.5,42.8333 79.5,41.5C 84.33,42.3231 89.33,43.9898 94.5,46.5C 93.276,48.8392 93.276,51.1725 94.5,53.5C 100.578,61.3227 106.411,69.3227 112,77.5C 112.741,76.3595 113.575,76.3595 114.5,77.5C 115.167,76.8333 115.833,76.1667 116.5,75.5C 118.194,80.2087 119.861,84.8753 121.5,89.5C 125.07,89.9005 127.236,91.9005 128,95.5C 129.333,95.5 130.667,95.5 132,95.5C 134.901,100.7 137.401,106.033 139.5,111.5C 140.833,111.5 142.167,111.5 143.5,111.5C 143.5,115.5 145.5,117.5 149.5,117.5C 149.336,120.187 149.503,122.854 150,125.5C 150.605,127.481 151.605,127.815 153,126.5C 153.179,129.553 153.679,132.553 154.5,135.5C 157.137,139.074 158.804,143.074 159.5,147.5C 162.012,147.423 164.012,148.423 165.5,150.5C 164.11,152.169 163.777,153.836 164.5,155.5C 168.316,150.396 169.483,151.396 168,158.5C 167.586,158.043 167.086,157.709 166.5,157.5C 165.52,160.086 165.187,162.753 165.5,165.5C 164.167,165.5 162.833,165.5 161.5,165.5C 161.173,170.214 161.507,174.88 162.5,179.5C 163.167,176.833 163.833,174.167 164.5,171.5C 165.167,181.5 165.833,191.5 166.5,201.5C 166.866,207.229 167.866,212.563 169.5,217.5 Z"/></g>
<g><path style="opacity:1" fill="#49ad52" d="M 295.5,42.5 C 304.094,43.9696 311.76,47.303 318.5,52.5C 310.396,49.9085 302.729,46.5751 295.5,42.5 Z"/></g>
<g><path style="opacity:1" fill="#4ba346" d="M 233.5,31.5 C 233.5,31.8333 233.5,32.1667 233.5,32.5C 184.5,32.5 135.5,32.5 86.5,32.5C 80.5,32.5 74.5,32.5 68.5,32.5C 67.5014,72.9966 67.1681,113.663 67.5,154.5C 67.1667,154.5 66.8333,154.5 66.5,154.5C 66.5,113.5 66.5,72.5 66.5,31.5C 122.167,31.5 177.833,31.5 233.5,31.5 Z"/></g>
<g><path style="opacity:1" fill="#dcfae0" d="M 328.5,57.5 C 332.408,58.7497 335.408,61.083 337.5,64.5C 334.19,62.5179 331.19,60.1846 328.5,57.5 Z"/></g>
<g><path style="opacity:1" fill="#3cae32" d="M 68.5,32.5 C 68.3333,73.5014 68.5,114.501 69,155.5C 70.0946,156.693 70.928,158.027 71.5,159.5C 70.8333,159.5 70.1667,159.5 69.5,159.5C 68.8333,157.833 68.1667,156.167 67.5,154.5C 67.1681,113.663 67.5014,72.9966 68.5,32.5 Z"/></g>
<g><path style="opacity:1" fill="#59b15e" d="M 353.5,82.5 C 356.66,86.1477 359.327,90.1477 361.5,94.5C 357.844,91.1967 355.178,87.1967 353.5,82.5 Z"/></g>
<g><path style="opacity:1" fill="#36b23a" d="M 327.5,57.5 C 327.833,57.5 328.167,57.5 328.5,57.5C 331.19,60.1846 334.19,62.5179 337.5,64.5C 340.305,67.8306 343.472,70.8306 347,73.5C 349.385,76.3785 351.552,79.3785 353.5,82.5C 355.178,87.1967 357.844,91.1967 361.5,94.5C 365.074,100.553 368.074,106.887 370.5,113.5C 371.15,115.435 371.483,117.435 371.5,119.5C 372.683,126.886 374.183,134.22 376,141.5C 376.171,151.109 377.004,160.609 378.5,170C 377.018,185.929 375.018,201.762 372.5,217.5C 369.161,231.858 363.494,245.192 355.5,257.5C 343.799,273.869 328.799,286.203 310.5,294.5C 308.167,295.167 305.833,295.833 303.5,296.5C 306.905,294.248 309.571,291.748 311.5,289C 307.888,286.863 304.722,287.363 302,290.5C 299.31,288.644 297.144,286.311 295.5,283.5C 297.117,280.216 299.45,277.549 302.5,275.5C 303.711,276.274 303.711,277.107 302.5,278C 303.108,278.87 303.941,279.37 305,279.5C 311.422,278.586 317.255,276.252 322.5,272.5C 325.837,268.164 329.504,264.164 333.5,260.5C 337.503,254.49 341.503,248.49 345.5,242.5C 346.325,241.614 347.325,241.281 348.5,241.5C 349.323,238.129 350.489,234.796 352,231.5C 352.85,230.576 353.85,230.576 355,231.5C 356.869,230.631 357.369,229.465 356.5,228C 358.131,225.843 358.631,223.343 358,220.5C 359.74,219.284 360.74,217.618 361,215.5C 361.333,210.167 361.667,204.833 362,199.5C 363.791,194.217 365.458,188.884 367,183.5C 367.669,186.028 368.502,186.028 369.5,183.5C 367.799,179.181 366.466,174.681 365.5,170C 366.922,166.221 368.589,162.554 370.5,159C 369,156.833 367.833,157 367,159.5C 366.682,157.939 365.849,156.772 364.5,156C 365.167,155.667 365.833,155.333 366.5,155C 362.243,147.163 360.41,138.663 361,129.5C 357.105,122.38 353.772,115.047 351,107.5C 347.167,101.833 343.333,96.1667 339.5,90.5C 338.205,89.9017 336.872,89.4017 335.5,89C 336.416,88.6258 337.25,88.1258 338,87.5C 340.089,87.7451 342.089,87.7451 344,87.5C 347.028,89.5299 349.361,92.1966 351,95.5C 351.308,94.6919 351.808,94.0253 352.5,93.5C 353.119,96.0318 354.119,98.3651 355.5,100.5C 356.833,101.833 358.167,101.833 359.5,100.5C 356.49,93.6064 352.824,87.1064 348.5,81C 349.167,80.6667 349.833,80.3333 350.5,80C 348.718,79.1859 347.218,78.0192 346,76.5C 345.517,77.448 345.351,78.448 345.5,79.5C 344.325,79.719 343.325,79.3857 342.5,78.5C 344.151,76.5979 344.484,74.5979 343.5,72.5C 340.951,71.7158 338.618,70.5492 336.5,69C 335.663,67.9887 335.33,66.8221 335.5,65.5C 330.175,65.5023 327.508,62.8357 327.5,57.5 Z"/></g>
<g><path style="opacity:1" fill="#e4fbe5" d="M 370.5,113.5 C 372.421,115.392 373.754,117.725 374.5,120.5C 376.064,124.675 376.731,129.008 376.5,133.5C 374.833,128.833 373.167,124.167 371.5,119.5C 371.483,117.435 371.15,115.435 370.5,113.5 Z"/></g>
<g><path style="opacity:1" fill="#409d3f" d="M 245.5,129.5 C 242.833,129.167 240.167,128.833 237.5,128.5C 215.34,127.503 193.006,127.169 170.5,127.5C 170.5,130.167 170.5,132.833 170.5,135.5C 169.523,132.713 169.19,129.713 169.5,126.5C 194.502,126.333 219.502,126.5 244.5,127C 245.252,127.671 245.586,128.504 245.5,129.5 Z"/></g>
<g><path style="opacity:1" fill="#eaffea" d="M 237.5,128.5 C 215.833,128.5 194.167,128.5 172.5,128.5C 172.081,132.773 172.748,136.773 174.5,140.5C 173.833,140.167 173.167,139.833 172.5,139.5C 171.833,138.167 171.167,136.833 170.5,135.5C 170.5,132.833 170.5,130.167 170.5,127.5C 193.006,127.169 215.34,127.503 237.5,128.5 Z"/></g>
<g><path style="opacity:1" fill="#fcfefc" d="M 237.5,128.5 C 240.167,128.833 242.833,129.167 245.5,129.5C 250.994,130.357 255.661,132.69 259.5,136.5C 259.167,139.5 260.5,140.833 263.5,140.5C 265.046,145.051 268.046,148.384 272.5,150.5C 273.833,152.833 275.167,155.167 276.5,157.5C 278.181,165.732 278.847,174.066 278.5,182.5C 278.5,182.833 278.5,183.167 278.5,183.5C 276.376,189.194 274.043,194.86 271.5,200.5C 265.062,208.432 257.062,214.265 247.5,218C 243.848,218.889 240.182,219.222 236.5,219C 234.498,216.14 232.165,213.64 229.5,211.5C 227.312,207.793 224.645,204.46 221.5,201.5C 219.312,197.793 216.645,194.46 213.5,191.5C 211.312,187.793 208.645,184.46 205.5,181.5C 200.927,173.926 195.594,166.926 189.5,160.5C 184.5,153.833 179.5,147.167 174.5,140.5C 172.748,136.773 172.081,132.773 172.5,128.5C 194.167,128.5 215.833,128.5 237.5,128.5 Z"/></g>
<g><path style="opacity:1" fill="#e3fde7" d="M 259.5,136.5 C 265.219,139.885 269.552,144.552 272.5,150.5C 268.046,148.384 265.046,145.051 263.5,140.5C 260.5,140.833 259.167,139.5 259.5,136.5 Z"/></g>
<g><path style="opacity:1" fill="#48b33f" d="M 172.5,139.5 C 173.167,139.833 173.833,140.167 174.5,140.5C 179.5,147.167 184.5,153.833 189.5,160.5C 187.983,160.489 186.816,159.823 186,158.5C 185.5,159 185,159.5 184.5,160C 184.64,161.264 184.64,162.431 184.5,163.5C 182.466,159.761 181.299,155.761 181,151.5C 177.533,147.88 174.7,143.88 172.5,139.5 Z"/></g>
<g><path style="opacity:1" fill="#50af51" d="M 371.5,119.5 C 373.167,124.167 374.833,128.833 376.5,133.5C 376.539,137.733 377.205,141.733 378.5,145.5C 380.723,168.724 379.389,191.724 374.5,214.5C 373.833,215.5 373.167,216.5 372.5,217.5C 375.018,201.762 377.018,185.929 378.5,170C 377.004,160.609 376.171,151.109 376,141.5C 374.183,134.22 372.683,126.886 371.5,119.5 Z"/></g>
<g><path style="opacity:1" fill="#37b72b" d="M 172.5,139.5 C 174.7,143.88 177.533,147.88 181,151.5C 181.299,155.761 182.466,159.761 184.5,163.5C 184.64,162.431 184.64,161.264 184.5,160C 185,159.5 185.5,159 186,158.5C 186.816,159.823 187.983,160.489 189.5,160.5C 195.594,166.926 200.927,173.926 205.5,181.5C 207.208,185.572 209.874,188.905 213.5,191.5C 215.208,195.572 217.874,198.905 221.5,201.5C 223.208,205.572 225.874,208.905 229.5,211.5C 230.581,213.764 231.915,215.931 233.5,218C 230.635,218.183 227.969,218.683 225.5,219.5C 207.5,219.5 189.5,219.5 171.5,219.5C 171.169,192.661 171.502,165.995 172.5,139.5 Z"/></g>
<g><path style="opacity:1" fill="#45ab4a" d="M 276.5,157.5 C 277.117,157.611 277.617,157.944 278,158.5C 280.301,166.014 280.968,173.681 280,181.5C 279.617,182.056 279.117,182.389 278.5,182.5C 278.847,174.066 278.181,165.732 276.5,157.5 Z"/></g>
<g><path style="opacity:1" fill="#4faf48" d="M 205.5,181.5 C 208.645,184.46 211.312,187.793 213.5,191.5C 209.874,188.905 207.208,185.572 205.5,181.5 Z"/></g>
<g><path style="opacity:1" fill="#31a343" d="M 69.5,159.5 C 70.1667,159.5 70.8333,159.5 71.5,159.5C 73.3004,161.828 74.467,164.495 75,167.5C 77.733,170.062 80.233,172.729 82.5,175.5C 89.4062,185.576 97.2396,194.91 106,203.5C 108.223,205.723 109.556,208.389 110,211.5C 136.564,243.651 162.398,276.318 187.5,309.5C 186.833,309.5 186.167,309.5 185.5,309.5C 180.695,308.513 175.695,308.179 170.5,308.5C 169.833,308.5 169.5,308.833 169.5,309.5C 168.501,351.663 168.168,393.997 168.5,436.5C 135.167,436.5 101.833,436.5 68.5,436.5C 68.1693,344.096 68.5027,251.763 69.5,159.5 Z"/></g>
<g><path style="opacity:1" fill="#48ac4a" d="M 278.5,183.5 C 278.579,188.338 277.745,193.004 276,197.5C 275.667,197.167 275.333,196.833 275,196.5C 274.584,198.55 273.417,199.884 271.5,200.5C 274.043,194.86 276.376,189.194 278.5,183.5 Z"/></g>
<g><path style="opacity:1" fill="#51af49" d="M 213.5,191.5 C 216.645,194.46 219.312,197.793 221.5,201.5C 217.874,198.905 215.208,195.572 213.5,191.5 Z"/></g>
<g><path style="opacity:1" fill="#e2fce3" d="M 378.5,145.5 C 379.831,153.305 380.498,161.472 380.5,170C 380.333,178.167 380.167,186.333 380,194.5C 378.738,198.313 378.071,202.313 378,206.5C 376.828,209.231 375.661,211.898 374.5,214.5C 379.389,191.724 380.723,168.724 378.5,145.5 Z"/></g>
<g><path style="opacity:1" fill="#57b250" d="M 221.5,201.5 C 224.645,204.46 227.312,207.793 229.5,211.5C 225.874,208.905 223.208,205.572 221.5,201.5 Z"/></g>
<g><path style="opacity:1" fill="#59ce4e" d="M 169.5,149.5 C 170.167,172.833 170.833,196.167 171.5,219.5C 189.5,219.5 207.5,219.5 225.5,219.5C 228.713,219.19 231.713,219.523 234.5,220.5C 213.187,221.61 191.853,221.776 170.5,221C 169.663,219.989 169.33,218.822 169.5,217.5C 169.5,194.833 169.5,172.167 169.5,149.5 Z"/></g>
<g><path style="opacity:1" fill="#44bc3e" d="M 82.5,175.5 C 85.9452,177.384 89.1119,179.718 92,182.5C 92.5585,185.285 93.8918,187.618 96,189.5C 96.414,189.043 96.914,188.709 97.5,188.5C 102.004,190.653 105.004,194.153 106.5,199C 106.167,199.333 105.833,199.667 105.5,200C 107.44,199.822 109.107,200.822 110.5,203C 108.314,203.604 108.148,204.77 110,206.5C 111.947,207.11 113.781,207.943 115.5,209C 114.833,209.667 114.167,210.333 113.5,211C 117.062,214.058 120.062,217.558 122.5,221.5C 123.086,221.291 123.586,220.957 124,220.5C 124.71,221.973 125.876,222.64 127.5,222.5C 129.237,224.794 130.404,227.46 131,230.5C 134.272,234.776 137.939,238.776 142,242.5C 143.113,243.76 143.28,244.927 142.5,246C 145.327,247.996 147.993,250.162 150.5,252.5C 148.238,254.508 148.738,254.841 152,253.5C 157.286,264.118 164.119,273.618 172.5,282C 172.167,282.333 171.833,282.667 171.5,283C 172.938,283.219 174.271,283.719 175.5,284.5C 174.289,285.72 174.289,286.887 175.5,288C 174.833,288.333 174.167,288.667 173.5,289C 180.581,294.568 185.915,301.401 189.5,309.5C 188.833,309.5 188.167,309.5 187.5,309.5C 162.398,276.318 136.564,243.651 110,211.5C 109.556,208.389 108.223,205.723 106,203.5C 97.2396,194.91 89.4062,185.576 82.5,175.5 Z"/></g>
<g><path style="opacity:1" fill="#e7fde9" d="M 374.5,214.5 C 374.054,220.081 373.387,225.414 372.5,230.5C 368.547,237.141 365.047,244.141 362,251.5C 360.243,254.097 358.076,256.097 355.5,257.5C 363.494,245.192 369.161,231.858 372.5,217.5C 373.167,216.5 373.833,215.5 374.5,214.5 Z"/></g>
<g><path style="opacity:1" fill="#559c60" d="M 66.5,154.5 C 66.8333,154.5 67.1667,154.5 67.5,154.5C 68.1667,156.167 68.8333,157.833 69.5,159.5C 67.5024,251.494 66.8358,343.827 67.5,436.5C 67.5,436.833 67.5,437.167 67.5,437.5C 67.1667,437.5 66.8333,437.5 66.5,437.5C 66.5,343.167 66.5,248.833 66.5,154.5 Z"/></g>
<g><path style="opacity:1" fill="#379b46" d="M 69.5,159.5 C 68.5027,251.763 68.1693,344.096 68.5,436.5C 68.1667,436.5 67.8333,436.5 67.5,436.5C 66.8358,343.827 67.5024,251.494 69.5,159.5 Z"/></g>
<g><path style="opacity:1" fill="#ebfee8" d="M 310.5,294.5 C 308.287,295.865 306.62,297.865 305.5,300.5C 306.578,303.207 307.578,305.874 308.5,308.5C 308.167,308.5 307.833,308.5 307.5,308.5C 305.34,305.492 303.34,302.325 301.5,299C 302.056,297.989 302.722,297.156 303.5,296.5C 305.833,295.833 308.167,295.167 310.5,294.5 Z"/></g>
<g><path style="opacity:1" fill="#cdf8d6" d="M 170.5,308.5 C 175.695,308.179 180.695,308.513 185.5,309.5C 180.833,309.5 176.167,309.5 171.5,309.5C 171.832,352.337 171.499,395.003 170.5,437.5C 170.5,394.5 170.5,351.5 170.5,308.5 Z"/></g>
<g><path style="opacity:1" fill="#7cc97a" d="M 319.5,323.5 C 321.587,324.585 322.92,326.251 323.5,328.5C 321.413,327.415 320.08,325.749 319.5,323.5 Z"/></g>
<g><path style="opacity:1" fill="#e4fce4" d="M 198.5,322.5 C 203.229,326.898 207.229,331.898 210.5,337.5C 204.352,334.197 200.352,329.197 198.5,322.5 Z"/></g>
<g><path style="opacity:1" fill="#49b742" d="M 323.5,328.5 C 330.222,335.614 336.222,343.281 341.5,351.5C 338.285,348.269 334.952,345.103 331.5,342C 330.833,341.333 330.167,341.333 329.5,342C 330.016,344.033 329.35,344.033 327.5,342C 328.11,339.534 327.776,337.034 326.5,334.5C 324.022,333.278 323.022,331.278 323.5,328.5 Z"/></g>
<g><path style="opacity:1" fill="#6ac167" d="M 341.5,351.5 C 343.587,352.585 344.92,354.251 345.5,356.5C 343.413,355.415 342.08,353.749 341.5,351.5 Z"/></g>
<g><path style="opacity:1" fill="#cff8cd" d="M 223.5,353.5 C 225.878,355.878 227.878,358.545 229.5,361.5C 226.353,359.687 224.353,357.02 223.5,353.5 Z"/></g>
<g><path style="opacity:1" fill="#5abd52" d="M 347.5,358.5 C 349.878,360.878 351.878,363.545 353.5,366.5C 349.776,365.01 347.776,362.344 347.5,358.5 Z"/></g>
<g><path style="opacity:1" fill="#b4edb2" d="M 229.5,361.5 C 231.587,362.585 232.92,364.251 233.5,366.5C 231.413,365.415 230.08,363.749 229.5,361.5 Z"/></g>
<g><path style="opacity:1" fill="#57b751" d="M 353.5,366.5 C 356.209,369.208 358.542,372.208 360.5,375.5C 357.027,373.363 354.694,370.363 353.5,366.5 Z"/></g>
<g><path style="opacity:1" fill="#cef6ce" d="M 239.5,373.5 C 241.878,375.878 243.878,378.545 245.5,381.5C 242.353,379.687 240.353,377.02 239.5,373.5 Z"/></g>
<g><path style="opacity:1" fill="#52b34d" d="M 363.5,379.5 C 366.645,382.46 369.312,385.793 371.5,389.5C 367.874,386.905 365.208,383.572 363.5,379.5 Z"/></g>
<g><path style="opacity:1" fill="#e2fce2" d="M 245.5,381.5 C 250.561,386.229 254.894,391.562 258.5,397.5C 255.68,395.066 252.514,393.066 249,391.5C 248.667,389.5 248.333,387.5 248,385.5C 246.519,384.529 245.685,383.196 245.5,381.5 Z"/></g>
<g><path style="opacity:1" fill="#47b63f" d="M 371.5,389.5 C 377.311,395.793 382.645,402.46 387.5,409.5C 385.188,407.854 383.188,405.854 381.5,403.5C 380.575,402.359 379.741,402.359 379,403.5C 376.618,400.573 374.118,397.739 371.5,395C 372.5,394.667 373.5,394.333 374.5,394C 372.859,392.871 371.859,391.371 371.5,389.5 Z"/></g>
<g><path style="opacity:1" fill="#dbfadb" d="M 258.5,397.5 C 260.395,398.973 262.061,400.64 263.5,402.5C 264.075,404.411 265.075,406.078 266.5,407.5C 263.812,405.868 261.312,403.868 259,401.5C 258.51,400.207 258.343,398.873 258.5,397.5 Z"/></g>
<g><path style="opacity:1" fill="#67be62" d="M 387.5,409.5 C 390.645,412.46 393.312,415.793 395.5,419.5C 391.874,416.905 389.208,413.572 387.5,409.5 Z"/></g>
<g><path style="opacity:1" fill="#baf4b5" d="M 273.5,416.5 C 275.587,417.585 276.92,419.251 277.5,421.5C 275.413,420.415 274.08,418.749 273.5,416.5 Z"/></g>
<g><path style="opacity:1" fill="#cffacc" d="M 283.5,429.5 C 284.5,430.167 285.5,430.833 286.5,431.5C 287.11,432.391 287.443,433.391 287.5,434.5C 285.413,433.415 284.08,431.749 283.5,429.5 Z"/></g>
<g><path style="opacity:1" fill="#359345" d="M 169.5,309.5 C 169.5,352.167 169.5,394.833 169.5,437.5C 135.5,437.5 101.5,437.5 67.5,437.5C 67.5,437.167 67.5,436.833 67.5,436.5C 67.8333,436.5 68.1667,436.5 68.5,436.5C 101.833,436.5 135.167,436.5 168.5,436.5C 168.168,393.997 168.501,351.663 169.5,309.5 Z"/></g>
<g><path style="opacity:1" fill="#3ea936" d="M 395.5,419.5 C 399.557,423.284 402.891,427.617 405.5,432.5C 405.511,434.017 406.177,435.184 407.5,436C 406.833,436.333 406.167,436.667 405.5,437C 367.835,437.5 330.168,437.667 292.5,437.5C 290.589,436.925 288.922,435.925 287.5,434.5C 287.443,433.391 287.11,432.391 286.5,431.5C 288.024,432.174 289.358,433.174 290.5,434.5C 292.612,433.801 294.612,434.301 296.5,436C 332.498,436.5 368.498,436.667 404.5,436.5C 404.66,434.801 404.494,433.134 404,431.5C 398.628,429.295 395.794,425.295 395.5,419.5 Z"/></g>
<g><path style="opacity:1" fill="#90d2a2" d="M 170.5,308.5 C 170.5,351.5 170.5,394.5 170.5,437.5C 137.671,438.498 104.671,438.832 71.5,438.5C 69.5853,438.784 67.9187,438.451 66.5,437.5C 66.8333,437.5 67.1667,437.5 67.5,437.5C 101.5,437.5 135.5,437.5 169.5,437.5C 169.5,394.833 169.5,352.167 169.5,309.5C 169.5,308.833 169.833,308.5 170.5,308.5 Z"/></g>
<g><path style="opacity:1" fill="#87d98b" d="M 405.5,432.5 C 407.929,433.855 409.262,435.522 409.5,437.5C 408.391,437.557 407.391,437.89 406.5,438.5C 368.33,438.832 330.33,438.499 292.5,437.5C 330.168,437.667 367.835,437.5 405.5,437C 406.167,436.667 406.833,436.333 407.5,436C 406.177,435.184 405.511,434.017 405.5,432.5 Z"/></g>
<g><path style="opacity:1" fill="#c8fed0" d="M 287.5,434.5 C 288.922,435.925 290.589,436.925 292.5,437.5C 330.33,438.499 368.33,438.832 406.5,438.5C 369.67,439.498 332.67,439.832 295.5,439.5C 291.303,440.016 288.636,438.35 287.5,434.5 Z"/></g>
<g><path style="opacity:1" fill="#e7fef2" d="M 185.5,309.5 C 186.167,309.5 186.833,309.5 187.5,309.5C 188.167,309.5 188.833,309.5 189.5,309.5C 190.6,310.605 191.267,311.938 191.5,313.5C 190.078,313.25 189.078,312.417 188.5,311C 183.177,310.501 177.844,310.334 172.5,310.5C 172.19,350.847 172.523,391.18 173.5,431.5C 173.582,434.757 172.582,437.591 170.5,440C 138.5,440.667 106.5,440.667 74.5,440C 73.2625,439.768 72.2625,439.268 71.5,438.5C 104.671,438.832 137.671,438.498 170.5,437.5C 171.499,395.003 171.832,352.337 171.5,309.5C 176.167,309.5 180.833,309.5 185.5,309.5 Z"/></g>
<g><path style="opacity:1" fill="#e8feec" d="M 409.5,437.5 C 409.196,438.15 408.863,438.817 408.5,439.5C 370.669,440.83 333.002,440.83 295.5,439.5C 332.67,439.832 369.67,439.498 406.5,438.5C 407.391,437.89 408.391,437.557 409.5,437.5 Z"/></g>
</svg>
